<svg xmlns="http://www.w3.org/2000/svg" viewBox="0 0 174.87 105.7"><g id="Mova"><path d="M8.68,86.73H5.47V79.38H8.82a1.86,1.86,0,0,1,2,1.81,1.65,1.65,0,0,1-1.17,1.59,1.92,1.92,0,0,1,1.48,1.83A2.24,2.24,0,0,1,8.68,86.73Zm-.24-4.4a.92.92,0,0,0,1-.87.85.85,0,0,0-.95-.8H6.83v1.67Zm1.34,2.1c0-.47-.38-.93-1.13-.93H6.83v2H8.56A1.08,1.08,0,0,0,9.78,84.43Z"/><path d="M17.29,86.73H16V86a1.6,1.6,0,0,1-1.5.83,1.87,1.87,0,0,1-1.94-2.11V81.32h1.3v3.27c0,.73.39,1,.95,1S16,85.19,16,83.94V81.32h1.3Z"/><path d="M23.93,86.73H19.08V79.38h1.36v6.07h3.49Z"/><path d="M29.53,83v3.75H28.26v-.79a1.93,1.93,0,0,1-1.71.91,1.58,1.58,0,0,1-1.74-1.61,1.72,1.72,0,0,1,1.72-1.66l1.1-.16c.21,0,.63-.11.63-.56s-.43-.56-.9-.56c-.81,0-1,.39-1.15.8H25a2.25,2.25,0,0,1,2.51-1.87C28.67,81.23,29.53,81.71,29.53,83Zm-1.31,1.48v-.29a3.71,3.71,0,0,1-.69.16l-.54.08c-.24,0-.88.13-.88.72s.32.63.78.63A1.27,1.27,0,0,0,28.22,84.46Z"/><path d="M40.52,84h1.4a3,3,0,0,1-3.3,2.9,3.53,3.53,0,0,1-3.55-3.84c0-2,1.14-3.87,3.6-3.87a2.93,2.93,0,0,1,3.2,2.62H40.48a1.67,1.67,0,0,0-1.84-1.34c-1.5,0-2.19,1.2-2.19,2.56s.77,2.56,2.19,2.56A1.7,1.7,0,0,0,40.52,84Z"/><path d="M47.73,83v3.75H46.46v-.79a1.91,1.91,0,0,1-1.7.91A1.58,1.58,0,0,1,43,85.24a1.72,1.72,0,0,1,1.72-1.66l1.09-.16c.21,0,.63-.11.63-.56s-.43-.56-.89-.56c-.81,0-1,.39-1.15.8H43.18a2.25,2.25,0,0,1,2.51-1.87C46.87,81.23,47.73,81.71,47.73,83Zm-1.3,1.48v-.29a3.71,3.71,0,0,1-.69.16l-.55.08c-.23,0-.87.13-.87.72s.32.63.78.63A1.28,1.28,0,0,0,46.43,84.46Z"/><path d="M50.83,86.73H49.47V79.38H54.4v1.28H50.83v1.71h3.29v1.28H50.83Z"/><path d="M56.4,84.42a1.24,1.24,0,0,0,1.36,1.3,1.15,1.15,0,0,0,1.14-.62h1.22a2.35,2.35,0,0,1-2.41,1.75,2.52,2.52,0,0,1-2.57-2.79,2.56,2.56,0,0,1,2.6-2.83,2.38,2.38,0,0,1,2.42,2.66v.53Zm0-1h2.45a1,1,0,0,0-1.15-1.12A1.23,1.23,0,0,0,56.43,83.47Zm.76-3.11L58.68,78l1,.77-1.4,1.56Z"/><path d="M10.55,95.52H12a3,3,0,0,1-3.3,2.9A3.53,3.53,0,0,1,5.1,94.58c0-2,1.15-3.87,3.6-3.87a2.93,2.93,0,0,1,3.21,2.62h-1.4A1.66,1.66,0,0,0,8.67,92c-1.5,0-2.19,1.2-2.19,2.55s.78,2.57,2.19,2.57A1.7,1.7,0,0,0,10.55,95.52Z"/><path d="M17.77,94.48v3.75H16.5v-.79a1.94,1.94,0,0,1-1.71.9,1.58,1.58,0,0,1-1.74-1.6,1.71,1.71,0,0,1,1.72-1.66l1.1-.16c.21,0,.63-.11.63-.57s-.43-.55-.9-.55c-.81,0-1,.39-1.15.8H13.21a2.25,2.25,0,0,1,2.51-1.87C16.91,92.73,17.77,93.21,17.77,94.48ZM16.46,96v-.29a3.08,3.08,0,0,1-.69.15l-.54.09c-.24,0-.88.12-.88.72,0,.43.32.63.78.63A1.27,1.27,0,0,0,16.46,96Z"/><path d="M20.86,98.23H19.5V90.88h4.93v1.28H20.86v1.71h3.29v1.28H20.86Z"/><path d="M26.43,95.92a1.24,1.24,0,0,0,1.36,1.3,1.16,1.16,0,0,0,1.15-.62h1.22a2.36,2.36,0,0,1-2.42,1.74,2.52,2.52,0,0,1-2.57-2.78,2.57,2.57,0,0,1,2.6-2.83,2.38,2.38,0,0,1,2.43,2.65v.54Zm0-1h2.46a1,1,0,0,0-1.16-1.11A1.23,1.23,0,0,0,26.46,95Z"/><path d="M174.87,40.05v25.7h-8.72v-5.4a13.17,13.17,0,0,1-11.66,6.2c-5.91,0-12-3.17-12-11,0-9.29,8.43-10.87,11.81-11.38l7.49-1.08c1.44-.21,4.32-.79,4.32-3.89,0-2.8-3-3.81-6.12-3.81-5.54,0-7.13,2.66-7.92,5.47h-8.5c1.44-8.64,8-12.82,17.21-12.82C169,28,174.87,31.34,174.87,40.05ZM165.94,50.2v-2a20.56,20.56,0,0,1-4.76,1.08l-3.74.57c-1.58.22-6,.87-6,5,0,2.95,2.16,4.32,5.33,4.32A8.81,8.81,0,0,0,165.94,50.2Z"/><path d="M97.39,19.23c0,12.09-7.56,19.29-18.44,19.29s-18.36-7.2-18.36-19.29S68.15,0,79,0,97.39,7.2,97.39,19.23Zm-27.65,0c0,7.48,4,11,9.36,11,5.76,0,9.14-4,9.14-11,0-7.42-4-11-9.36-11C73.12,8.28,69.74,12.31,69.74,19.23Z"/><path d="M129.44,22.48l3.87,39.65-8.53,4.35L95,40l8.6-4.38L124.5,55.14,121,26.77Z"/><path d="M52.58,25.65,63.93,47.91,56,52,45.41,31.24c-2-3.91-4.77-4.76-8.17-3-3.78,1.93-5.17,5.55-2.33,11.13l9.45,18.54-8,4.06L25.84,41.21c-2-3.91-4.89-4.69-8.23-3-3.72,1.89-5.08,5.58-2.3,11l9.48,18.6-7.95,4.06L0,38.87l7.83-4,2.48,4.87c-.31-3.15.88-7.31,5.89-9.86,4.42-2.26,8.71-1.94,12,.74.08-3,1-7.38,7-10.42C42.31,16.58,49,18.53,52.58,25.65Z"/><path d="M80.18,87.26c-2.15,0-3.41,1.51-3.41,4.08,0,2.79,1.48,4.1,3.49,4.1s3.4-1.5,3.4-4.1C83.66,88.58,82.19,87.26,80.18,87.26Z"/><path d="M152,92.3c-.59.08-2.23.33-2.23,1.85,0,1.1.81,1.61,2,1.61a3.27,3.27,0,0,0,3.4-3.32v-.75a7.86,7.86,0,0,1-1.77.4Z"/><path d="M66.72,75.59V105.7H174.87V75.59Zm97.36,3.87h3.56v6.7L167,92.68h-2.34l-.61-6.52ZM80.21,98.52c-4,0-6.84-2.68-6.84-7.18s2.81-7.16,6.84-7.16,6.86,2.68,6.86,7.16S84.25,98.52,80.21,98.52Zm22.46-.29H99.34V89.62a2.29,2.29,0,0,0-2.57-2.46c-2,0-3,1.36-3,3.62v7.45H90.42V84.42h3.29v2a4.42,4.42,0,0,1,4.21-2.25c3.14,0,4.75,1.85,4.75,5.15Zm16.59,1a5.21,5.21,0,0,1-5.28,3.41h-1.37V99.68h1c1.37,0,2.41-.4,2.79-1.53l0-.11-5.31-13.62h3.54l3.4,9.63,3.35-9.63h3.43Zm20.4-1h-3.57l-5.41-13.81h3.59l3.65,10,3.64-10h3.51Zm18.82,0h-3.25v-2a4.9,4.9,0,0,1-4.34,2.3c-2.2,0-4.45-1.18-4.45-4.1,0-3.46,3.14-4,4.4-4.23l2.78-.41c.54-.08,1.61-.29,1.61-1.44s-1.1-1.42-2.28-1.42c-2.06,0-2.65,1-2.94,2h-3.17c.54-3.21,3-4.77,6.41-4.77,3,0,5.23,1.23,5.23,4.48Zm9.24,0H164V94.37h3.75Z"/><path d="M41,98.24H35.76V97l1.73-1.52c1.32-1.16,1.95-1.58,1.95-2.35a1,1,0,0,0-1.15-1,1.28,1.28,0,0,0-1.35,1.33H35.63a2.57,2.57,0,0,1,2.79-2.55A2.12,2.12,0,0,1,40.8,93c0,1.34-1,2.08-2.3,3.15l-1.07.9H41Z"/><path d="M47.2,94.62c0,2.28-.77,3.74-2.57,3.74s-2.57-1.46-2.57-3.74.78-3.73,2.57-3.73S47.2,92.34,47.2,94.62Zm-1.34,0c0-1.58-.39-2.51-1.23-2.51S43.4,93,43.4,94.62s.39,2.52,1.23,2.52S45.86,96.21,45.86,94.62Z"/><path d="M53.63,98.24H48.38V97l1.73-1.52c1.32-1.16,2-1.58,2-2.35a1,1,0,0,0-1.15-1,1.28,1.28,0,0,0-1.35,1.33H48.25A2.57,2.57,0,0,1,51,90.89,2.12,2.12,0,0,1,53.42,93c0,1.34-1,2.08-2.3,3.15l-1.07.9h3.58Z"/><path d="M60.16,98.24H54.91V97l1.73-1.52c1.33-1.16,2-1.58,2-2.35a1,1,0,0,0-1.16-1,1.28,1.28,0,0,0-1.35,1.33H54.78a2.57,2.57,0,0,1,2.79-2.55A2.12,2.12,0,0,1,60,93c0,1.34-1,2.08-2.3,3.15l-1.07.9h3.58Z"/></g></svg>